<?xml version="1.0" encoding="utf-8"?>
<!DOCTYPE svg PUBLIC "-//W3C//DTD SVG 20010904//EN" "http://www.w3.org/TR/2001/REC-SVG-20010904/DTD/svg10.dtd">
<svg version="1.0" xmlns="http://www.w3.org/2000/svg" width="21pt" height="20pt" viewBox="0 0 21 20" style="" preserveAspectRatio="xMidYMid meet">
<g fill="#1CA8C3FF" stroke="#1CA8C3FF">
<path d="M 2.687 2.805 C 0.605 4.978 0.000 6.598 0.000 10.000 C 0.000 13.402 0.605 15.022 2.687 17.195 C 4.954 19.561 6.184 20.000 10.551 20.000 C 17.644 20.000 21.000 16.805 21.000 10.051 C 21.000 6.232 20.485 4.881 18.195 2.687 C 15.915 0.502 14.455 0.000 10.382 0.000 C 6.201 0.000 4.931 0.463 2.687 2.805 M 14.234 2.828 C 15.799 3.448 15.693 3.931 13.152 7.771 C 10.358 11.991 10.319 12.010 8.512 10.013 C 4.309 5.369 3.753 8.931 7.900 13.932 L 10.745 17.364 13.205 13.432 C 14.557 11.269 16.136 8.639 16.713 7.587 C 17.731 5.731 17.781 5.736 18.421 7.752 C 19.962 12.608 16.228 18.000 11.325 18.000 C 4.970 18.000 0.727 12.488 2.950 7.121 C 4.706 2.883 9.638 1.006 14.234 2.828 "/></g>
</svg>
