<?xml version="1.0" encoding="utf-8"?>
<!DOCTYPE svg PUBLIC "-//W3C//DTD SVG 20010904//EN" "http://www.w3.org/TR/2001/REC-SVG-20010904/DTD/svg10.dtd">
<svg version="1.0" xmlns="http://www.w3.org/2000/svg" width="21pt" height="20pt" viewBox="0 0 21 20" style="" preserveAspectRatio="xMidYMid meet">
<g fill="#FF5656FF" stroke="#FF5656FF">
<path d="M 2.687 2.805 C 0.605 4.978 0.000 6.598 0.000 10.000 C 0.000 13.402 0.605 15.022 2.687 17.195 C 4.954 19.561 6.184 20.000 10.551 20.000 C 17.644 20.000 21.000 16.805 21.000 10.051 C 21.000 6.232 20.485 4.881 18.195 2.687 C 15.915 0.502 14.455 0.000 10.382 0.000 C 6.201 0.000 4.931 0.463 2.687 2.805 M 14.234 2.828 C 15.796 3.447 15.680 3.952 13.074 7.888 C 10.256 12.145 10.144 12.204 8.849 10.130 C 7.460 7.905 5.000 7.225 5.000 9.067 C 5.000 10.840 10.156 17.022 11.132 16.418 C 11.632 16.109 13.336 13.589 14.919 10.819 C 17.372 6.523 17.890 6.079 18.438 7.806 C 19.938 12.529 15.729 18.000 10.597 18.000 C 7.580 18.000 4.106 15.671 2.946 12.870 C 0.190 6.216 7.153 0.022 14.234 2.828 "/></g>
</svg>
